# File created by Blade
# Date/Time:  Tue Jan 27 17:09:01 2015
#---------------------------------------------------------
:version 1.10
:name HOM
:units
  mass 1.0
  length 1.000000
  angle deg
:documentation
     Acclaim Skeleton File
:root
   axis xyz
   order TX TY TZ RX RY RZ
   position 0.000000 0.000000 0.000000
   orientation 0 0 0
:bonedata
   begin
      id 1
      name Spine_dum
      direction 0.000000 1.000000 0.000000
      length 7.539951
      axis 0.0 0.0 0.0 xyz
   end
   begin
      id 2
      name LeftUpLeg_dum
      direction 1.000000 0.000000 0.000000
      length 3.345476
      axis 0.0 0.0 0.0 xyz
   end
   begin
      id 3
      name RightUpLeg_dum
      direction -1.000000 0.000000 0.000000
      length 3.345476
      axis 0.0 0.0 0.0 xyz
   end
   begin
      id 4
      name Spine
      direction 0.000000 1.000000 0.000000
      length 0.000000
      axis 0.0 0.0 0.0 xyz
      dof rx ry rz
   end
   begin
      id 5
      name Spine_dum1
      direction 0.000000 1.000000 0.000000
      length 15.093809
      axis 0.0 0.0 0.0 xyz
   end
   begin
      id 6
      name Spine_dum2
      direction 0.000000 1.000000 0.000000
      length 9.738928
      axis 0.0 0.0 0.0 xyz
   end
   begin
      id 7
      name Spine_dum3
      direction 0.000000 1.000000 0.000000
      length 9.738928
      axis 0.0 0.0 0.0 xyz
   end
   begin
      id 8
      name Head
      direction 0.000000 1.000000 0.000000
      length 4.527550
      axis 0.0 0.0 0.0 xyz
      dof rx ry rz
   end
   begin
      id 9
      name LeftShoulder
      direction 1.000000 0.000000 0.000000
      length 7.084015
      axis 0.0 0.0 -90.0 xyz
      dof rx ry rz
   end
   begin
      id 10
      name LeftArm
      direction 1.000000 0.000000 0.000000
      length 10.259319
      axis 0.0 0.0 -90.0 xyz
      dof rx ry rz
   end
   begin
      id 11
      name LeftForeArm
      direction 1.000000 0.000000 0.000000
      length 9.896984
      axis 0.0 0.0 -90.0 xyz
      dof ry rz rx
   end
   begin
      id 12
      name LeftHand
      direction 0.000000 0.000000 0.000000
      length 0.000000
      axis 0.0 0.0 -90.0 xyz
      dof rx ry rz
   end
   begin
      id 13
      name LeftHand_dum1
      direction 0.000000 0.000000 0.000000
      length 0.000000
      axis 0.0 0.0 -90.0 xyz
   end
   begin
      id 14
      name LeftHand_dum2
      direction 1.000000 0.000000 0.000000
      length 3.937000
      axis 0.0 0.0 -90.0 xyz
   end
   begin
      id 15
      name LeftHandThumb1
      direction 0.000000 0.000000 1.000000
      length 3.937000
      axis 0.0 0.0 -90.0 xyz
      dof rx rz ry
   end
   begin
      id 16
      name RightShoulder
      direction -1.000000 0.000000 0.000000
      length 7.084015
      axis 0.0 0.0 90.0 xyz
      dof rx ry rz
   end
   begin
      id 17
      name RightArm
      direction -1.000000 0.000000 0.000000
      length 10.259319
      axis 0.0 0.0 90.0 xyz
      dof rx ry rz
   end
   begin
      id 18
      name RightForeArm
      direction -1.000000 0.000000 0.000000
      length 9.896984
      axis 0.0 0.0 90.0 xyz
      dof ry rz rx
   end
   begin
      id 19
      name RightHand
      direction 0.000000 0.000000 0.000000
      length 0.000000
      axis 0.0 0.0 90.0 xyz
      dof rx ry rz
   end
   begin
      id 20
      name RightHand_dum1
      direction 0.000000 0.000000 0.000000
      length 0.000000
      axis 0.0 0.0 90.0 xyz
   end
   begin
      id 21
      name RightHand_dum2
      direction -1.000000 0.000000 0.000000
      length 3.937000
      axis 0.0 0.0 90.0 xyz
   end
   begin
      id 22
      name RightHandThumb1
      direction 0.000000 0.000000 1.000000
      length 3.937000
      axis 0.0 0.0 90.0 xyz
      dof rx rz ry
   end
   begin
      id 23
      name LeftUpLeg
      direction 0.000000 -1.000000 0.000000
      length 19.114733
      axis 0.0 0.0 0.0 xyz
      dof rx ry rz
   end
   begin
      id 24
      name LeftLeg
      direction 0.000000 -1.000000 0.000000
      length 16.045604
      axis 0.0 0.0 0.0 xyz
      dof rx ry rz
   end
   begin
      id 25
      name LeftFoot
      direction 0.000000 -0.258819 0.965926
      length 5.543155
      axis 15.0 0.0 0.0 xyz
      dof rx ry rz
   end
   begin
      id 26
      name LeftToeBase
      direction 0.000000 0.000000 1.000000
      length 2.952750
      axis 0.0 0.0 0.0 xyz
      dof rx ry rz
   end
   begin
      id 27
      name RightUpLeg
      direction 0.000000 -1.000000 0.000000
      length 19.114733
      axis 0.0 0.0 0.0 xyz
      dof rx ry rz
   end
   begin
      id 28
      name RightLeg
      direction 0.000000 -1.000000 0.000000
      length 16.045604
      axis 0.0 0.0 0.0 xyz
      dof rx ry rz
   end
   begin
      id 29
      name RightFoot
      direction 0.000000 -0.258819 0.965926
      length 5.543155
      axis 15.0 0.0 0.0 xyz
      dof rx ry rz
   end
   begin
      id 30
      name RightToeBase
      direction 0.000000 0.000000 1.000000
      length 2.952750
      axis 0.0 0.0 0.0 xyz
      dof rx ry rz
   end
:hierarchy
   begin
      root Spine_dum LeftUpLeg_dum RightUpLeg_dum
      Spine_dum Spine
      LeftUpLeg_dum LeftUpLeg
      RightUpLeg_dum RightUpLeg
      Spine Spine_dum1 Spine_dum2 Spine_dum3
      Spine_dum1 Head
      Spine_dum2 LeftShoulder
      Spine_dum3 RightShoulder
      LeftShoulder LeftArm
      LeftArm LeftForeArm
      LeftForeArm LeftHand
      LeftHand LeftHand_dum1 LeftHand_dum2
      LeftHand_dum1 LeftHandThumb1
      RightShoulder RightArm
      RightArm RightForeArm
      RightForeArm RightHand
      RightHand RightHand_dum1 RightHand_dum2
      RightHand_dum1 RightHandThumb1
      LeftUpLeg LeftLeg
      LeftLeg LeftFoot
      LeftFoot LeftToeBase
      RightUpLeg RightLeg
      RightLeg RightFoot
      RightFoot RightToeBase
   end

# File created by Blade
# Date/Time:  Tue Jan 27 17:08:52 2015
# Frame Rate: 120.000 fps
#------------------------------------------------------
:FULLY-SPECIFIED
:DEGREES
2834
root 0.959066 36.256332 -0.553785 8.884119 -48.623396 -18.682079
Spine 16.665567 17.103222 12.278529
Head -9.164529 -17.600373 1.585567
LeftShoulder -8.240220 -5.711914 3.724250
LeftArm -26.591764 -40.890171 -36.267484
LeftForeArm 15.775726 -0.000000 119.457219
LeftHand -26.414027 0.000000 34.047041
LeftHandThumb1 -26.253704 0.000000 33.147579
RightShoulder 3.312457 -19.751799 -6.505866
RightArm 26.179020 -18.474676 58.100369
RightForeArm 189.425267 -0.000000 68.698670
RightHand -0.218653 -0.000000 13.981678
RightHandThumb1 -24.326973 -0.000000 -32.862282
LeftUpLeg -11.872876 19.354278 5.803917
LeftLeg 33.466315 -0.000000 -0.000000
LeftFoot -28.735071 18.373577 -11.909476
LeftToeBase 12.027069 -0.000000 -0.000000
RightUpLeg -78.764639 -29.860799 11.429024
RightLeg 125.368704 -0.000000 -0.000000
RightFoot 16.744295 -1.989459 8.653116
RightToeBase 7.942545 -0.000000 -0.000000
2835
root 0.961062 36.264374 -0.555491 8.833837 -48.497368 -18.654948
Spine 16.695445 17.022366 12.317136
Head -9.229507 -17.622512 1.636990
LeftShoulder -8.229903 -5.713156 3.778376
LeftArm -26.495951 -40.805373 -36.404391
LeftForeArm 15.858564 -0.000000 119.378774
LeftHand -26.463896 0.000000 34.153253
LeftHandThumb1 -26.253704 0.000000 33.147579
RightShoulder 3.303126 -19.741111 -6.480060
RightArm 26.161385 -18.388619 58.096684
RightForeArm 189.417701 -0.000000 68.706673
RightHand -0.193094 -0.000000 14.066695
RightHandThumb1 -24.326973 -0.000000 -32.862282
LeftUpLeg -11.822760 19.294851 5.803760
LeftLeg 33.346784 -0.000000 -0.000000
LeftFoot -28.666963 18.417986 -11.769494
LeftToeBase 12.102684 -0.000000 -0.000000
RightUpLeg -78.895292 -29.909566 11.367914
RightLeg 124.389835 -0.000000 -0.000000
RightFoot 16.519504 -2.176456 8.789905
RightToeBase 7.966359 -0.000000 -0.000000
2836
root 0.966833 36.274022 -0.559159 8.799987 -48.372430 -18.621229
Spine 16.711245 16.958440 12.353930
Head -9.296016 -17.646199 1.668605
LeftShoulder -8.246557 -5.691767 3.810115
LeftArm -26.307278 -40.661515 -36.579149
LeftForeArm 15.895567 -0.000000 119.288875
LeftHand -26.468868 -0.000000 34.214936
LeftHandThumb1 -26.253704 0.000000 33.147579
RightShoulder 3.279668 -19.725933 -6.446132
RightArm 26.140150 -18.289102 58.105008
RightForeArm 189.399348 -0.000000 68.708770
RightHand -0.166690 -0.000000 14.104831
RightHandThumb1 -24.326973 -0.000000 -32.862282
LeftUpLeg -11.765156 19.190218 5.798722
LeftLeg 33.168077 -0.000000 -0.000000
LeftFoot -28.594545 18.423663 -11.672006
LeftToeBase 12.160489 -0.000000 -0.000000
RightUpLeg -79.057851 -29.925222 11.338230
RightLeg 123.258283 -0.000000 -0.000000
RightFoot 16.166621 -2.463711 8.782292
RightToeBase 7.834437 -0.000000 -0.000000
2837
root 0.970173 36.283792 -0.569378 8.892540 -48.238198 -18.716417
Spine 16.683008 16.891804 12.481153
Head -9.332153 -17.678798 1.685279
LeftShoulder -8.195075 -5.741667 3.862912
LeftArm -26.345091 -40.490512 -36.648101
LeftForeArm 15.830467 -0.000000 119.224201
LeftHand -26.385271 0.000000 34.177061
LeftHandThumb1 -26.253704 0.000000 33.147579
RightShoulder 3.273553 -19.726170 -6.444622
RightArm 26.101775 -18.186866 58.135485
RightForeArm 189.318994 -0.000000 68.721673
RightHand -0.100706 -0.000000 14.110267
RightHandThumb1 -24.326973 -0.000000 -32.862282
LeftUpLeg -11.841374 19.152258 5.860809
LeftLeg 33.185774 -0.000000 -0.000000
LeftFoot -28.499487 18.462387 -11.529163
LeftToeBase 12.109912 -0.000000 -0.000000
RightUpLeg -79.217169 -29.930641 11.390590
RightLeg 122.016717 -0.000000 -0.000000
RightFoot 15.533227 -2.679785 8.792749
RightToeBase 8.180596 -0.000000 -0.000000
2838
root 0.973172 36.294659 -0.578349 8.965207 -48.095301 -18.798139
Spine 16.663978 16.818298 12.595521
Head -9.372821 -17.682384 1.718766
LeftShoulder -8.206687 -5.731998 3.832762
LeftArm -26.195894 -40.328108 -36.702293
LeftForeArm 15.810450 -0.000000 119.156819
LeftHand -26.368199 -0.000000 34.237715
LeftHandThumb1 -26.253704 0.000000 33.147579
RightShoulder 3.246810 -19.747840 -6.428133
RightArm 26.102020 -18.099830 58.140980
RightForeArm 189.365599 -0.000000 68.720878
RightHand -0.082051 -0.000000 14.167044
RightHandThumb1 -24.326973 -0.000000 -32.862282
LeftUpLeg -11.863110 19.089407 5.935171
LeftLeg 33.111622 -0.000000 -0.000000
LeftFoot -28.406822 18.475557 -11.407562
LeftToeBase 12.123218 -0.000000 -0.000000
RightUpLeg -79.384200 -29.970714 11.461691
RightLeg 120.659460 -0.000000 -0.000000
RightFoot 14.916129 -2.925141 8.583802
RightToeBase 8.024335 -0.000000 -0.000000
2839
root 0.977193 36.304677 -0.586049 8.986217 -47.939722 -18.837559
Spine 16.672590 16.733519 12.685233
Head -9.427505 -17.718132 1.768802
LeftShoulder -8.195880 -5.729687 3.853134
LeftArm -26.058269 -40.199672 -36.828244
LeftForeArm 15.840953 -0.000000 119.082054
LeftHand -26.368978 -0.000000 34.274509
LeftHandThumb1 -26.253704 0.000000 33.147579
RightShoulder 3.236983 -19.698087 -6.407474
RightArm 26.022180 -18.013499 58.195044
RightForeArm 189.349286 -0.000000 68.729111
RightHand -0.074782 -0.000000 14.176248
RightHandThumb1 -24.326973 -0.000000 -32.862282
LeftUpLeg -11.856359 19.039540 5.983159
LeftLeg 33.017296 -0.000000 -0.000000
LeftFoot -28.328059 18.441028 -11.317519
LeftToeBase 12.121290 -0.000000 -0.000000
RightUpLeg -79.532560 -30.038460 11.497138
RightLeg 119.199324 -0.000000 -0.000000
RightFoot 14.212126 -3.199555 8.447278
RightToeBase 8.282074 -0.000000 -0.000000
2840
root 0.981988 36.314913 -0.591059 9.015188 -47.780344 -18.904136
Spine 16.693052 16.645208 12.813617
Head -9.467906 -17.747649 1.792756
LeftShoulder -8.142942 -5.777119 3.878344
LeftArm -26.071161 -40.016908 -36.881204
LeftForeArm 15.784276 -0.000000 119.037419
LeftHand -26.302885 -0.000000 34.322882
LeftHandThumb1 -26.253704 0.000000 33.147579
RightShoulder 3.198886 -19.741114 -6.400093
RightArm 26.038717 -17.914290 58.196483
RightForeArm 189.403012 -0.000000 68.734024
RightHand -0.091457 -0.000000 14.249169
RightHandThumb1 -24.326973 -0.000000 -32.862282
LeftUpLeg -11.844616 18.968161 6.052350
LeftLeg 32.949085 -0.000000 -0.000000
LeftFoot -28.232148 18.431347 -11.195439
LeftToeBase 12.054447 -0.000000 -0.000000
RightUpLeg -79.652395 -30.131397 11.537267
RightLeg 117.623709 -0.000000 -0.000000
RightFoot 13.607048 -3.485637 8.054744
RightToeBase 7.713062 -0.000000 -0.000000
2841
root 0.987157 36.323688 -0.598075 9.055561 -47.607328 -18.972531
Spine 16.698439 16.544497 12.933596
Head -9.513755 -17.776549 1.840144
LeftShoulder -8.124590 -5.762629 3.882451
LeftArm -25.977349 -39.864787 -36.962369
LeftForeArm 15.762186 -0.000000 118.993497
LeftHand -26.306173 -0.000000 34.393549
LeftHandThumb1 -26.253704 0.000000 33.147579
RightShoulder 3.185927 -19.693168 -6.385609
RightArm 25.956107 -17.814819 58.249740
RightForeArm 189.332576 -0.000000 68.756870
RightHand -0.017021 -0.000000 14.216782
RightHandThumb1 -24.326973 -0.000000 -32.862282
LeftUpLeg -11.851821 18.898635 6.118594
LeftLeg 32.874925 -0.000000 -0.000000
LeftFoot -28.167944 18.425646 -11.088916
LeftToeBase 12.094904 -0.000000 -0.000000
RightUpLeg -79.811021 -30.253555 11.632337
RightLeg 115.963861 -0.000000 -0.000000
RightFoot 12.859660 -3.978380 8.183571
RightToeBase 7.338364 -0.000000 -0.000000
2842
root 0.992196 36.332423 -0.613497 9.108376 -47.508194 -19.029322
Spine 16.706938 16.546149 12.985970
Head -9.579220 -17.805641 1.977949
LeftShoulder -8.112029 -5.764405 3.887492
LeftArm -25.840270 -39.711214 -36.992089
LeftForeArm 15.738785 -0.000000 118.959714
LeftHand -26.302530 -0.000000 34.407486
LeftHandThumb1 -26.253704 0.000000 33.147579
RightShoulder 3.159885 -19.675615 -6.319548
RightArm 25.913050 -17.686570 58.296279
RightForeArm 189.278425 0.000000 68.783017
RightHand -0.000757 -0.000000 14.205232
RightHandThumb1 -24.326973 -0.000000 -32.862282
LeftUpLeg -11.874805 18.925134 6.175244
LeftLeg 32.806232 -0.000000 -0.000000
LeftFoot -28.091012 18.373926 -10.990685
LeftToeBase 12.119339 -0.000000 -0.000000
RightUpLeg -79.977624 -30.276487 11.727985
RightLeg 114.198376 -0.000000 -0.000000
RightFoot 12.169713 -4.468867 8.051354
RightToeBase 6.504827 -0.000000 -0.000000
2843
root 1.002826 36.337368 -0.617516 9.057676 -47.317510 -18.947549
Spine 16.674215 16.445622 12.949942
Head -9.629793 -17.849540 2.110911
LeftShoulder -8.093025 -5.746111 3.927374
LeftArm -25.706560 -39.617986 -37.100030
LeftForeArm 15.761267 -0.000000 118.939361
LeftHand -26.341920 -0.000000 34.419608
LeftHandThumb1 -26.253704 0.000000 33.147579
RightShoulder 3.130055 -19.681738 -6.255431
RightArm 25.887788 -17.574621 58.322490
RightForeArm 189.224868 -0.000000 68.809224
RightHand 0.042939 -0.000000 14.241794
RightHandThumb1 -24.326973 -0.000000 -32.862282
LeftUpLeg -11.908373 18.800588 6.125134
LeftLeg 32.729055 -0.000000 -0.000000
LeftFoot -28.006302 18.335004 -10.957791
LeftToeBase 12.042005 -0.000000 -0.000000
RightUpLeg -80.149024 -30.453335 11.703218
RightLeg 112.408324 -0.000000 -0.000000
RightFoot 11.432190 -4.910779 7.964498
RightToeBase 6.905714 -0.000000 -0.000000
